<?xml version="1.0" encoding="UTF-8" standalone="no"?>
<svg
   version="1.1"
   id="svg1"
   width="1024"
   height="1024"
   viewBox="0 0 1024 1024"
   sodipodi:docname="favicon.svg"
   inkscape:version="1.4 (86a8ad7, 2024-10-11)"
   xmlns:inkscape="http://www.inkscape.org/namespaces/inkscape"
   xmlns:sodipodi="http://sodipodi.sourceforge.net/DTD/sodipodi-0.dtd"
   xmlns="http://www.w3.org/2000/svg"
   xmlns:svg="http://www.w3.org/2000/svg">
  <defs
     id="defs1">
    <inkscape:path-effect
       effect="fillet_chamfer"
       id="path-effect9"
       is_visible="true"
       lpeversion="1"
       nodesatellites_param="F,0,0,1,0,0,0,1 @ F,0,0,1,0,0,0,1 @ F,0,0,1,0,0,0,1 @ F,0,0,1,0,0,0,1"
       radius="0"
       unit="px"
       method="auto"
       mode="F"
       chamfer_steps="1"
       flexible="false"
       use_knot_distance="true"
       apply_no_radius="true"
       apply_with_radius="true"
       only_selected="false"
       hide_knots="false" />
    <inkscape:path-effect
       effect="fillet_chamfer"
       id="path-effect8"
       is_visible="true"
       lpeversion="1"
       nodesatellites_param="F,0,0,1,0,0,0,1 @ F,0,0,1,0,0,0,1 @ F,0,0,1,0,0,0,1 @ F,0,0,1,0,0,0,1"
       radius="0"
       unit="px"
       method="auto"
       mode="F"
       chamfer_steps="1"
       flexible="false"
       use_knot_distance="true"
       apply_no_radius="true"
       apply_with_radius="true"
       only_selected="false"
       hide_knots="false" />
  </defs>
  <sodipodi:namedview
     id="namedview1"
     pagecolor="#ffffff"
     bordercolor="#000000"
     borderopacity="0.25"
     inkscape:showpageshadow="2"
     inkscape:pageopacity="0.0"
     inkscape:pagecheckerboard="0"
     inkscape:deskcolor="#d1d1d1"
     showgrid="false"
     inkscape:zoom="0.27863045"
     inkscape:cx="-977.99792"
     inkscape:cy="629.86655"
     inkscape:window-width="1920"
     inkscape:window-height="1009"
     inkscape:window-x="-8"
     inkscape:window-y="-8"
     inkscape:window-maximized="1"
     inkscape:current-layer="g2" />
  <g
     inkscape:groupmode="layer"
     inkscape:label="Image"
     id="g1">
    <g
       id="g2"
       transform="translate(23.413146,-33.158301)">
      <path
         style="color:#000000;font-style:normal;font-variant:normal;font-weight:normal;font-stretch:normal;font-size:medium;line-height:normal;font-family:sans-serif;font-variant-ligatures:normal;font-variant-position:normal;font-variant-caps:normal;font-variant-numeric:normal;font-variant-alternates:normal;font-variant-east-asian:normal;font-feature-settings:normal;font-variation-settings:normal;text-indent:0;text-align:start;text-decoration-line:none;text-decoration-style:solid;text-decoration-color:#000000;letter-spacing:normal;word-spacing:normal;text-transform:none;writing-mode:lr-tb;direction:ltr;text-orientation:mixed;dominant-baseline:auto;baseline-shift:baseline;text-anchor:start;white-space:normal;shape-padding:0;shape-margin:0;inline-size:0;clip-rule:nonzero;display:inline;overflow:visible;visibility:visible;isolation:auto;mix-blend-mode:normal;color-interpolation:sRGB;color-interpolation-filters:linearRGB;solid-color:#000000;solid-opacity:1;vector-effect:none;fill:#2292e1;fill-opacity:1;fill-rule:nonzero;stroke:none;stroke-linecap:butt;stroke-linejoin:miter;stroke-miterlimit:4;stroke-dasharray:none;stroke-dashoffset:0;stroke-opacity:1;-inkscape-stroke:none;color-rendering:auto;image-rendering:auto;shape-rendering:auto;text-rendering:auto;enable-background:accumulate;stop-color:#000000;stop-opacity:1"
         d="M 77.539177,764.59346 C 65.463598,753.95803 10.232452,625.16199 30.743569,627.27279 104.07314,694.15724 326.87417,793.90517 490.76899,710.10565 691.12004,607.66604 762.05019,567.15239 949.05016,639.38079 c 0.76476,32.13822 7.63804,97.41429 -15.47238,68.88287 -54.10439,-66.79564 -342.79706,45.93128 -395.86146,67.78196 -190.01106,78.24211 -216.43895,60.38412 -460.177143,-11.45216 z"
         id="path5"
         sodipodi:nodetypes="ccscssc" />
      <path
         style="fill:#43a505;stroke-width:1.41638"
         d="m 384.78873,521.50153 c 1.55218,-1.22359 13.53191,-6.09613 13.53191,-5.50388 0,0.75143 -11.45307,6.00234 -13.09205,6.00234 -0.58971,0 -0.78763,-0.22431 -0.43986,-0.49846 z m -235.76064,-6.44975 c -1.52058,-3.4516 17.5416,-39.42821 60.35184,-98.33811 41.21563,-1.38765 89.22162,3.77488 122.63282,-21.14319 7.9976,-6.76643 11.02109,-18.83064 4.28614,-17.10236 -40.78983,10.46717 -85.79552,14.41703 -89.25372,6.56711 -5.47,-12.41656 136.09951,-115.83182 136.09951,-119.38736 0,-0.60342 -0.94482,-1.78014 -2.09962,-2.61496 -13.57419,-9.81287 -143.54859,82.40176 -146.04169,75.74299 -4.59881,-15.9604 12.0666,-61.83168 -6.21335,-52.12301 -23.31841,12.38468 -21.94218,54.31341 -19.47457,82.6662 -4.95654,3.64236 -26.34405,24.56041 -30.82283,22.70697 -8.54108,-8.96436 -8.88002,-60.46312 -10.86054,-65.00818 -6.04681,-13.87685 -37.8846,61.9735 -13.86262,86.04064 3.6022,13.57674 -48.14469,65.31836 -44.62428,65.31836 -10.685504,22.09252 -29.50214,-42.33111 -4.16816,-113.02353 75.53816,-186.04208 345.10372,-189.69446 366.18823,-189.69446 -0.43528,42.62394 -12.6319,223.67909 -184.30888,308.69945 -41.27114,20.43888 -75.44232,29.52949 -119.36364,31.75448 -14.78467,0.74895 -17.74283,0.57898 -18.46531,-1.06104 z"
         id="path3"
         sodipodi:nodetypes="ssssccssssssscssssscsscc" />
      <path
         id="rect8"
         style="color:#000000;font-style:normal;font-variant:normal;font-weight:normal;font-stretch:normal;font-size:medium;line-height:normal;font-family:sans-serif;font-variant-ligatures:normal;font-variant-position:normal;font-variant-caps:normal;font-variant-numeric:normal;font-variant-alternates:normal;font-variant-east-asian:normal;font-feature-settings:normal;font-variation-settings:normal;text-indent:0;text-align:start;text-decoration-line:none;text-decoration-style:solid;text-decoration-color:#000000;letter-spacing:normal;word-spacing:normal;text-transform:none;writing-mode:lr-tb;direction:ltr;text-orientation:mixed;dominant-baseline:auto;baseline-shift:baseline;text-anchor:start;white-space:normal;shape-padding:0;shape-margin:0;inline-size:0;clip-rule:nonzero;display:inline;overflow:visible;visibility:visible;isolation:auto;mix-blend-mode:normal;color-interpolation:sRGB;color-interpolation-filters:linearRGB;solid-color:#000000;solid-opacity:1;vector-effect:none;fill:#2292e1;fill-opacity:1;fill-rule:nonzero;stroke:none;stroke-linecap:butt;stroke-linejoin:miter;stroke-miterlimit:4;stroke-dasharray:none;stroke-dashoffset:0;stroke-opacity:1;-inkscape-stroke:none;color-rendering:auto;image-rendering:auto;shape-rendering:auto;text-rendering:auto;enable-background:accumulate;stop-color:#000000;stop-opacity:1"
         d="m 136.53138,848.24788 c -41.158822,-54.0877 195.3362,126.42697 475.58711,-43.41464 146.43085,-88.74209 301.3688,-53.65599 301.3688,-53.65599 C 881.77688,869.28566 759.4685,919.7094 686.05317,960.36361 488.68715,1069.6563 265.40035,977.96444 237.82852,955.09019 223.0426,942.82344 152.47539,869.20025 136.53138,848.24788 Z"
         sodipodi:nodetypes="sscsss" />
      <path
         style="display:inline;fill:#104431;stroke-width:1.68065"
         d="M 302.13459,1020.7585 C 205.55304,982.47945 121.98911,915.63271 64.11943,830.35898 -153.89034,509.11112 68.382756,92.63208 386.63245,41.182934 479.2309,26.213191 644.16475,20.42438 788.20635,124.54082 c 96.82691,69.98862 175.99797,193.03239 199.97954,310.79841 16.67831,81.90198 11.97261,150.77857 5.32978,193.28958 -2.3665,20.09725 -30.42288,219.10765 -225.38803,345.28596 -215.64776,138.79583 -427.30533,62.17713 -465.99305,46.84373 z M 458.5811,988.90761 C 574.02553,965.30974 656.01928,886.96083 768.12764,867.66592 791.1334,860.329 836.33202,872.07048 849.28191,853.62083 944.4158,719.5897 1034.8347,553.4216 792.38939,547.36178 c -72.00232,6.38778 -153.70035,32.68654 -250.14707,77.88748 -66.29108,32.83523 -135.87558,54.62181 -209.71781,56.91454 -37.95453,-5.07678 -146.73975,9.75054 -170.10416,-36.888 0,-7.88159 196.75294,-52.93963 335.84325,-270.25515 8.42649,-13.16561 11.17872,-16.28887 13.86067,-15.72934 4.22976,0.88243 30.67027,7.47776 35.97436,8.61408 28.98255,-36.16371 63.67326,-75.7325 96.64895,-111.08468 29.15475,-31.18221 36.73801,-38.40655 40.32307,-38.41453 7.70505,-0.0169 80.65377,79.4716 88.16713,92.47382 0.31019,0.53683 27.00958,-10.64924 31.15012,-13.0508 2.26667,-1.31466 5.71729,1.46159 18.23307,14.66989 21.17243,22.3439 118.68541,111.3668 118.68541,100.05291 0,-7.18457 -54.24272,-183.67596 -209.15307,-275.45356 C 453.93527,-27.733674 53.239406,134.26857 19.708738,496.79697 -4.658447,724.7007 155.20612,910.65265 309.62408,978.86819 c 59.70366,27.68671 87.41316,23.27731 148.95702,10.03942 z M 570.68714,232.652 c -24.16187,-12.63252 -30.15699,-44.183 -11.89624,-62.6063 23.09304,-23.2986 69.16527,-10.10607 66.91443,30.08213 -2.07341,37.02047 -43.67609,38.45411 -55.01819,32.52417 z m 32.30185,239.60259 c -24.71729,1.25314 -49.31584,14.92398 -73.94074,9.82091 -4.90151,-8.00139 82.22215,-15.45686 126.81437,-57.52415 9.23037,-10.3124 -57.56725,9.1711 -57.56725,4.40872 0,-12.3983 102.80842,-42.82928 86.09586,-151.89291 -1.51014,-3.97034 -96.33706,88.93927 -87.4408,103.3113 1.75489,2.835 1.46707,3.96845 -1.93562,7.62268 -20.54433,28.12844 -34.6339,44.48414 -72.77298,23.91138 -3.79168,-2.50652 -4.06282,-2.31882 -10.1834,7.04958 -52.29984,80.0523 -204.90415,211.03706 -204.90415,217.98404 0,0.058 256.51516,-104.1482 295.83471,-164.69155 z m 156.49777,-30.58793 c 18.29366,-21.36506 27.06331,-59.52329 20.05341,-87.09712 -1.1183,-1.12824 -15.57352,12.90976 -80.64781,78.32022 -59.20593,59.51172 -88.88444,90.71447 -88.88444,93.44936 0,9.69093 108.83422,-33.60865 149.47884,-84.67246 z"
         id="path2"
         sodipodi:nodetypes="sssssssssssssssssssssssssssssssscssssssssscsssss" />
    </g>
  </g>
</svg>
